<?xml version="1.0" standalone="no"?>
<svg xmlns:xlink="http://www.w3.org/1999/xlink" id="wave" style="transform:rotate(180deg); transition: 0.3s" viewBox="0 0 1440 110" version="1.1" xmlns="http://www.w3.org/2000/svg"><defs><linearGradient id="sw-gradient-0" x1="0" x2="0" y1="1" y2="0"><stop stop-color="rgba(255, 249, 234, 1)" offset="0%"/><stop stop-color="rgba(255, 249, 234, 1)" offset="100%"/></linearGradient></defs><path style="transform:translate(0, 0px); opacity:1" fill="url(#sw-gradient-0)" d="M0,33L20,31.2C40,29,80,26,120,25.7C160,26,200,29,240,31.2C280,33,320,33,360,27.5C400,22,440,11,480,16.5C520,22,560,44,600,47.7C640,51,680,37,720,33C760,29,800,37,840,42.2C880,48,920,51,960,44C1000,37,1040,18,1080,16.5C1120,15,1160,29,1200,31.2C1240,33,1280,22,1320,18.3C1360,15,1400,18,1440,18.3C1480,18,1520,15,1560,11C1600,7,1640,4,1680,9.2C1720,15,1760,29,1800,31.2C1840,33,1880,22,1920,14.7C1960,7,2000,4,2040,1.8C2080,0,2120,0,2160,16.5C2200,33,2240,66,2280,73.3C2320,81,2360,62,2400,62.3C2440,62,2480,81,2520,75.2C2560,70,2600,40,2640,23.8C2680,7,2720,4,2760,11C2800,18,2840,37,2860,45.8L2880,55L2880,110L2860,110C2840,110,2800,110,2760,110C2720,110,2680,110,2640,110C2600,110,2560,110,2520,110C2480,110,2440,110,2400,110C2360,110,2320,110,2280,110C2240,110,2200,110,2160,110C2120,110,2080,110,2040,110C2000,110,1960,110,1920,110C1880,110,1840,110,1800,110C1760,110,1720,110,1680,110C1640,110,1600,110,1560,110C1520,110,1480,110,1440,110C1400,110,1360,110,1320,110C1280,110,1240,110,1200,110C1160,110,1120,110,1080,110C1040,110,1000,110,960,110C920,110,880,110,840,110C800,110,760,110,720,110C680,110,640,110,600,110C560,110,520,110,480,110C440,110,400,110,360,110C320,110,280,110,240,110C200,110,160,110,120,110C80,110,40,110,20,110L0,110Z"/></svg>